<svg width="77" height="77" viewBox="0 0 77 77" fill="none" xmlns="http://www.w3.org/2000/svg">
<rect width="77" height="77" rx="11" fill="url(#paint0_linear)"/>
<path d="M47.2188 14.0312V21.4688H46.3438C42.2604 21.5312 38.9688 22.5938 36.4688 24.6562C33.9896 26.7188 32.5 29.5833 32 33.25C34.4167 30.7917 37.4688 29.5625 41.1562 29.5625C45.1146 29.5625 48.2604 30.9792 50.5938 33.8125C52.9271 36.6458 54.0938 40.375 54.0938 45C54.0938 47.9583 53.4479 50.6354 52.1562 53.0312C50.8854 55.4271 49.0729 57.2917 46.7188 58.625C44.3854 59.9583 41.7396 60.625 38.7812 60.625C33.9896 60.625 30.1146 58.9583 27.1562 55.625C24.2188 52.2917 22.75 47.8438 22.75 42.2812V39.0312C22.75 34.0938 23.6771 29.7396 25.5312 25.9688C27.4062 22.1771 30.0833 19.25 33.5625 17.1875C37.0625 15.1042 41.1146 14.0521 45.7188 14.0312H47.2188ZM38.4062 36.8125C36.9479 36.8125 35.625 37.1979 34.4375 37.9688C33.25 38.7188 32.375 39.7188 31.8125 40.9688V43.7188C31.8125 46.7396 32.4062 49.1042 33.5938 50.8125C34.7812 52.5 36.4479 53.3438 38.5938 53.3438C40.5312 53.3438 42.0938 52.5833 43.2812 51.0625C44.4896 49.5208 45.0938 47.5312 45.0938 45.0938C45.0938 42.6146 44.4896 40.6146 43.2812 39.0938C42.0729 37.5729 40.4479 36.8125 38.4062 36.8125Z" fill="white"/>
<defs>
<linearGradient id="paint0_linear" x1="38.5" y1="0" x2="38.5" y2="77" gradientUnits="userSpaceOnUse">
<stop stop-color="#0146AE"/>
<stop offset="1" stop-color="#5491EE"/>
</linearGradient>
</defs>
</svg>
