<svg width="77" height="77" viewBox="0 0 77 77" fill="none" xmlns="http://www.w3.org/2000/svg">
<rect width="77" height="77" rx="11" fill="url(#paint0_linear)"/>
<path d="M24.0625 37.625L26.6875 14.5H52.1875V22.0312H34.0938L32.9688 31.8125C35.1146 30.6667 37.3958 30.0938 39.8125 30.0938C44.1458 30.0938 47.5417 31.4375 50 34.125C52.4583 36.8125 53.6875 40.5729 53.6875 45.4062C53.6875 48.3438 53.0625 50.9792 51.8125 53.3125C50.5833 55.625 48.8125 57.4271 46.5 58.7188C44.1875 59.9896 41.4583 60.625 38.3125 60.625C35.5625 60.625 33.0104 60.0729 30.6562 58.9688C28.3021 57.8438 26.4375 56.2708 25.0625 54.25C23.7083 52.2292 22.9896 49.9271 22.9062 47.3438H31.8438C32.0312 49.2396 32.6875 50.7188 33.8125 51.7812C34.9583 52.8229 36.4479 53.3438 38.2812 53.3438C40.3229 53.3438 41.8958 52.6146 43 51.1562C44.1042 49.6771 44.6562 47.5938 44.6562 44.9062C44.6562 42.3229 44.0208 40.3438 42.75 38.9688C41.4792 37.5938 39.6771 36.9062 37.3438 36.9062C35.1979 36.9062 33.4583 37.4688 32.125 38.5938L31.25 39.4062L24.0625 37.625Z" fill="white"/>
<defs>
<linearGradient id="paint0_linear" x1="38.5" y1="0" x2="38.5" y2="77" gradientUnits="userSpaceOnUse">
<stop stop-color="#0146AE"/>
<stop offset="1" stop-color="#5491EE"/>
</linearGradient>
</defs>
</svg>
