<svg width="77" height="77" viewBox="0 0 77 77" fill="none" xmlns="http://www.w3.org/2000/svg">
<rect width="77" height="77" rx="11" fill="#77ADFF"/>
<rect x="4.48633" y="22.083" width="14.7232" height="14.7232" rx="4" fill="#2A7AF3"/>
<rect x="4.48633" y="39.6799" width="14.7232" height="14.7232" rx="4" fill="#2A7AF3"/>
<rect x="4.48633" y="57.2766" width="14.7232" height="14.7232" rx="4" fill="#0045AD"/>
<rect x="22.083" y="22.083" width="14.7232" height="14.7232" rx="4" fill="#0045AD"/>
<rect x="22.083" y="39.6799" width="14.7232" height="14.7232" rx="4" fill="#0045AD"/>
<rect x="22.083" y="57.2766" width="14.7232" height="14.7232" rx="4" fill="#2A7AF3"/>
<rect x="39.6799" y="22.083" width="14.7232" height="14.7232" rx="4" fill="#0045AD"/>
<rect x="57.2766" y="22.083" width="14.7232" height="14.7232" rx="4" fill="#2A7AF3"/>
<rect x="39.6799" y="39.6799" width="14.7232" height="14.7232" rx="4" fill="#0045AD"/>
<rect x="39.6799" y="57.2766" width="14.7232" height="14.7232" rx="4" fill="#2A7AF3"/>
<rect x="57.2766" y="39.6799" width="14.7232" height="14.7232" rx="4" fill="#2A7AF3"/>
<rect x="57.2766" y="57.2766" width="14.7232" height="14.7232" rx="4" fill="#0045AD"/>
<rect x="4.48633" y="4.48633" width="14.7232" height="14.7232" rx="4" fill="#0045AD"/>
<rect x="22.083" y="4.48633" width="14.7232" height="14.7232" rx="4" fill="#2A7AF3"/>
<rect x="39.6799" y="4.48633" width="14.7232" height="14.7232" rx="4" fill="#2A7AF3"/>
<rect x="57.2766" y="4.48633" width="14.7232" height="14.7232" rx="4" fill="#0045AD"/>
</svg>
